<?xml version="1.0" encoding="UTF-8"?>
<svg version="1.1" xmlns="http://www.w3.org/2000/svg" width="150" height="70">
<path d="M0 0 C13.52506793 -0.40985054 13.52506793 -0.40985054 18 3 C20 6 20 6 19.875 9.5 C19 13 19 13 17.4296875 14.70703125 C14.06092439 16.49973316 10.95718481 16.32309944 7.25 16.1875 C4.8575 16.125625 2.465 16.06375 0 16 C0 10.72 0 5.44 0 0 Z M4 4 C4 6.64 4 9.28 4 12 C5.45792884 12.05399736 6.91642712 12.09279177 8.375 12.125 C9.59316406 12.15980469 9.59316406 12.15980469 10.8359375 12.1953125 C13.21342243 12.21370051 13.21342243 12.21370051 15 10 C14.83492354 7.42459787 14.83492354 7.42459787 14 5 C11.71294169 3.85647084 10.40735238 3.89665561 7.875 3.9375 C5.956875 3.9684375 5.956875 3.9684375 4 4 Z " fill="#9D802E" transform="translate(83,16)"/>
<path d="M0 0 C3.58008409 1.93921222 4.68995406 3.08924004 6 6.9375 C6 10.680574 5.43891439 12.16771232 3 15 C-1.92584486 17.5201997 -5.75762227 17.18376271 -11 16 C-13.5 14.4375 -13.5 14.4375 -15 12 C-15.62728591 8.42374927 -15.79752931 5.17730518 -13.6875 2.0625 C-9.46552696 -0.59577932 -4.81656905 -0.5999586 0 0 Z M-9.875 5.5 C-10.24625 5.995 -10.6175 6.49 -11 7 C-10.45291273 9.53744315 -10.45291273 9.53744315 -9 12 C-6.1403994 13.17110449 -6.1403994 13.17110449 -3 13 C-0.63709315 11.68864588 -0.63709315 11.68864588 1 10 C0.65555119 7.52733235 0.65555119 7.52733235 0 5 C-3.40830501 3.2958475 -6.84058198 3.07246559 -9.875 5.5 Z " fill="#9D7E2D" transform="translate(75,16)"/>
<path d="M0 0 C1.65 0 3.3 0 5 0 C5 1.98 5 3.96 5 6 C7.97 6 10.94 6 14 6 C14 4.02 14 2.04 14 0 C15.65 0 17.3 0 19 0 C19 5.28 19 10.56 19 16 C17.35 16 15.7 16 14 16 C14 14.02 14 12.04 14 10 C11.03 10 8.06 10 5 10 C5 11.98 5 13.96 5 16 C3.35 16 1.7 16 0 16 C0 10.72 0 5.44 0 0 Z " fill="#9D812E" transform="translate(105,16)"/>
<path d="M0 0 C1.98 0 3.96 0 6 0 C8.64 5.28 11.28 10.56 14 16 C12.35 16 10.7 16 9 16 C8.67 15.01 8.34 14.02 8 13 C4.7 13 1.4 13 -2 13 C-2.33 13.99 -2.66 14.98 -3 16 C-4.65 16 -6.3 16 -8 16 C-5.36 10.72 -2.72 5.44 0 0 Z M2 6 C1.67 6.99 1.34 7.98 1 9 C2.32 8.67 3.64 8.34 5 8 C4.67 7.34 4.34 6.68 4 6 C3.34 6 2.68 6 2 6 Z " fill="#9C812D" transform="translate(133,16)"/>
<path d="M0 0 C3.9290625 -0.0309375 3.9290625 -0.0309375 7.9375 -0.0625 C8.7637085 -0.071604 9.58991699 -0.08070801 10.44116211 -0.09008789 C12.29433759 -0.09723945 14.14749308 -0.0502852 16 0 C17 1 17 1 17.0625 4.5625 C17.041875 5.696875 17.02125 6.83125 17 8 C16.01 8.33 15.02 8.66 14 9 C15.32 11.31 16.64 13.62 18 16 C14.75728494 15.4409112 13.06942576 14.5867822 11 12 C11 11.34 11 10.68 11 10 C8.36 10 5.72 10 3 10 C3 11.98 3 13.96 3 16 C2.01 16 1.02 16 0 16 C0 10.72 0 5.44 0 0 Z M3 2 C3 3.65 3 5.3 3 7 C6.63 7 10.26 7 14 7 C14.33 6.01 14.66 5.02 15 4 C13.18806994 1.75675164 13.18806994 1.75675164 10.6171875 1.8046875 C9.71226563 1.82789063 8.80734375 1.85109375 7.875 1.875 C6.96492188 1.89304688 6.05484375 1.91109375 5.1171875 1.9296875 C4.41851562 1.95289063 3.71984375 1.97609375 3 2 Z " fill="#6E6F71" transform="translate(100,38)"/>
<path d="M0 0 C4.95 0 9.9 0 15 0 C13.92321277 4.30714891 13.04559112 5.28991322 9.9375 8.25 C9.20402344 8.95640625 8.47054687 9.6628125 7.71484375 10.390625 C7.14894531 10.92171875 6.58304687 11.4528125 6 12 C9.3 12.33 12.6 12.66 16 13 C16 13.99 16 14.98 16 16 C10.72 16 5.44 16 0 16 C1.07580149 10.62099255 1.58661459 9.99140478 5.5625 6.6875 C6.38878906 5.99011719 7.21507813 5.29273438 8.06640625 4.57421875 C8.70449219 4.05472656 9.34257813 3.53523438 10 3 C6.7 2.67 3.4 2.34 0 2 C0 1.34 0 0.68 0 0 Z " fill="#696A6D" transform="translate(62,38)"/>
<path d="M0 0 C1.32 0 2.64 0 4 0 C5.17154293 2.28929053 6.33738074 4.58118362 7.5 6.875 C8.00080078 7.85146484 8.00080078 7.85146484 8.51171875 8.84765625 C11 13.7734375 11 13.7734375 11 16 C10.01 16 9.02 16 8 16 C7.67 14.68 7.34 13.36 7 12 C5.37399059 12.0870005 3.74910322 12.1951781 2.125 12.3125 C0.76761719 12.39951172 0.76761719 12.39951172 -0.6171875 12.48828125 C-3.36221601 12.7882039 -3.36221601 12.7882039 -5 16 C-5.99 16 -6.98 16 -8 16 C-6.49387553 10.66010414 -4.01822198 4.01822198 0 0 Z M1 3 C0.34 4.98 -0.32 6.96 -1 9 C0.98 9 2.96 9 5 9 C3.515 6.03 3.515 6.03 2 3 C1.67 3 1.34 3 1 3 Z " fill="#6C6D71" transform="translate(50,38)"/>
<path d="M0 0 C7.92 0 15.84 0 24 0 C24 1.65 24 3.3 24 5 C16.08 5 8.16 5 0 5 C0 3.35 0 1.7 0 0 Z " fill="#6D6F71" transform="translate(7,49)"/>
<path d="M0 0 C7.92 0 15.84 0 24 0 C24 1.65 24 3.3 24 5 C16.08 5 8.16 5 0 5 C0 3.35 0 1.7 0 0 Z " fill="#6E6E71" transform="translate(7,41)"/>
<path d="M0 0 C7.92 0 15.84 0 24 0 C24 1.65 24 3.3 24 5 C16.08 5 8.16 5 0 5 C0 3.35 0 1.7 0 0 Z " fill="#6D6E72" transform="translate(7,16)"/>
<path d="M0 0 C1.32 0 2.64 0 4 0 C4 3.96 4 7.92 4 12 C7.96 12 11.92 12 16 12 C16 13.32 16 14.64 16 16 C10.72 16 5.44 16 0 16 C0 10.72 0 5.44 0 0 Z " fill="#9D802D" transform="translate(44,16)"/>
<path d="M0 0 C0.66 0 1.32 0 2 0 C2.06058594 0.69867188 2.12117188 1.39734375 2.18359375 2.1171875 C2.26738281 3.02726562 2.35117188 3.93734375 2.4375 4.875 C2.55931641 6.23238281 2.55931641 6.23238281 2.68359375 7.6171875 C2.86989285 10.01110861 2.86989285 10.01110861 4 12 C7.64458987 13.08352672 9.17943822 12.95514044 13 12 C13.33 8.04 13.66 4.08 14 0 C14.99 0 15.98 0 17 0 C17.10841951 1.91541138 17.18578079 3.83259773 17.25 5.75 C17.29640625 6.81734375 17.3428125 7.8846875 17.390625 8.984375 C17 12 17 12 15.265625 14.36328125 C12.73202149 16.19359138 11.58417688 16.51671687 8.5 16.4375 C7.7471875 16.43621094 6.994375 16.43492188 6.21875 16.43359375 C3.32226094 15.86755452 2.00519329 15.18584134 0 13 C-0.390625 9.86328125 -0.390625 9.86328125 -0.25 6.3125 C-0.21390625 5.13300781 -0.1778125 3.95351563 -0.140625 2.73828125 C-0.09421875 1.83464844 -0.0478125 0.93101563 0 0 Z " fill="#6E6E71" transform="translate(80,38)"/>
<path d="M0 0 C7.92 0 15.84 0 24 0 C24 1.32 24 2.64 24 4 C16.08 4 8.16 4 0 4 C0 2.68 0 1.36 0 0 Z " fill="#6E6E72" transform="translate(7,33)"/>
<path d="M0 0 C7.92 0 15.84 0 24 0 C24 1.32 24 2.64 24 4 C16.08 4 8.16 4 0 4 C0 2.68 0 1.36 0 0 Z " fill="#6D6E72" transform="translate(7,25)"/>
</svg>
